<?xml version="1.0" encoding="UTF-8"?>
<svg width="24px" height="24px" viewBox="0 0 24 24" version="1.1" xmlns="http://www.w3.org/2000/svg"
     xmlns:xlink="http://www.w3.org/1999/xlink">
    <title>ic/home</title>
    <defs>
        <path d="M5,23 C3.34314575,23 2,21.6568542 2,20 L2,9 C2,8.69140957 2.14247284,8.40010398 2.38605939,8.21064778 L11.3860594,1.21064778 C11.7471699,0.929784072 12.2528301,0.929784072 12.6139406,1.21064778 L21.6139406,8.21064778 C21.8575272,8.40010398 22,8.69140957 22,9 L22,20 C22,21.6568542 20.6568542,23 19,23 L5,23 Z M12,3.26686158 L4,9.48908381 L4,20 C4,20.5522847 4.44771525,21 5,21 L8,21 L8,12 C8,11.4871642 8.38604019,11.0644928 8.88337887,11.0067277 L9,11 L15,11 C15.5522847,11 16,11.4477153 16,12 L16,12 L16,21 L19,21 C19.5522847,21 20,20.5522847 20,20 L20,9.48908381 L12,3.26686158 Z M14,13 L10,13 L10,21 L14,21 L14,13 Z"
              id="path-1"/>
    </defs>
    <g id="Superjoin" stroke="none" stroke-width="1" fill="#000000" fill-rule="evenodd">
        <g id="0-2-1" transform="translate(-154.000000, -180.000000)">
            <g id="Group-20" transform="translate(154.000000, 180.000000)">
                <g id="ic/home">
                    <mask id="mask-2" fill="#000000">
                        <use xlink:href="#path-1"/>
                    </mask>
                    <use id="Combined-Shape" fill="#000000" fill-rule="nonzero" xlink:href="#path-1"/>
                    <g id="COLOR/-black" mask="url(#mask-2)" fill="#000000" fill-rule="evenodd">
                        <rect id="Rectangle" x="0" y="0" width="24" height="24"/>
                    </g>
                </g>
            </g>
        </g>
    </g>
</svg>
